# File created by Blade
# Date/Time:  Wed Apr 08 17:12:22 2015
#---------------------------------------------------------
:version 1.10
:name HOM
:units
  mass 1.0
  length 1.000000
  angle deg
:documentation
     Acclaim Skeleton File
:root
   axis xyz
   order TX TY TZ RX RY RZ
   position 0.000000 0.000000 0.000000
   orientation 0 0 0
:bonedata
   begin
      id 1
      name Spine_dum
      direction 0.000000 1.000000 0.000000
      length 5.893853
      axis 0.0 0.0 0.0 xyz
   end
   begin
      id 2
      name LeftUpLeg_dum
      direction 1.000000 0.000000 0.000000
      length 3.697939
      axis 0.0 0.0 0.0 xyz
   end
   begin
      id 3
      name RightUpLeg_dum
      direction -1.000000 0.000000 0.000000
      length 3.697939
      axis 0.0 0.0 0.0 xyz
   end
   begin
      id 4
      name Spine
      direction 0.000000 1.000000 0.000000
      length 0.000000
      axis 0.0 0.0 0.0 xyz
      dof rx ry rz
   end
   begin
      id 5
      name Spine_dum1
      direction 0.000000 1.000000 0.000000
      length 16.447146
      axis 0.0 0.0 0.0 xyz
   end
   begin
      id 6
      name Spine_dum2
      direction 0.000000 1.000000 0.000000
      length 10.900383
      axis 0.0 0.0 0.0 xyz
   end
   begin
      id 7
      name Spine_dum3
      direction 0.000000 1.000000 0.000000
      length 10.900383
      axis 0.0 0.0 0.0 xyz
   end
   begin
      id 8
      name Head
      direction 0.000000 1.000000 0.000000
      length 4.527550
      axis 0.0 0.0 0.0 xyz
      dof rx ry rz
   end
   begin
      id 9
      name LeftShoulder
      direction 1.000000 0.000000 0.000000
      length 8.219464
      axis 0.0 0.0 -90.0 xyz
      dof rx ry rz
   end
   begin
      id 10
      name LeftArm
      direction 1.000000 0.000000 0.000000
      length 11.094937
      axis 0.0 0.0 -90.0 xyz
      dof rx ry rz
   end
   begin
      id 11
      name LeftForeArm
      direction 1.000000 0.000000 0.000000
      length 9.103875
      axis 0.0 0.0 -90.0 xyz
      dof ry rz rx
   end
   begin
      id 12
      name LeftHand
      direction 0.000000 0.000000 0.000000
      length 0.000000
      axis 0.0 0.0 -90.0 xyz
      dof rx ry rz
   end
   begin
      id 13
      name LeftHand_dum1
      direction 0.000000 0.000000 0.000000
      length 0.000000
      axis 0.0 0.0 -90.0 xyz
   end
   begin
      id 14
      name LeftHand_dum2
      direction 1.000000 0.000000 0.000000
      length 3.937000
      axis 0.0 0.0 -90.0 xyz
   end
   begin
      id 15
      name LeftHandThumb1
      direction 0.000000 0.000000 1.000000
      length 3.937000
      axis 0.0 0.0 -90.0 xyz
      dof rx rz ry
   end
   begin
      id 16
      name RightShoulder
      direction -1.000000 0.000000 0.000000
      length 8.219464
      axis 0.0 0.0 90.0 xyz
      dof rx ry rz
   end
   begin
      id 17
      name RightArm
      direction -1.000000 0.000000 0.000000
      length 11.094937
      axis 0.0 0.0 90.0 xyz
      dof rx ry rz
   end
   begin
      id 18
      name RightForeArm
      direction -1.000000 0.000000 0.000000
      length 9.103875
      axis 0.0 0.0 90.0 xyz
      dof ry rz rx
   end
   begin
      id 19
      name RightHand
      direction 0.000000 0.000000 0.000000
      length 0.000000
      axis 0.0 0.0 90.0 xyz
      dof rx ry rz
   end
   begin
      id 20
      name RightHand_dum1
      direction 0.000000 0.000000 0.000000
      length 0.000000
      axis 0.0 0.0 90.0 xyz
   end
   begin
      id 21
      name RightHand_dum2
      direction -1.000000 0.000000 0.000000
      length 3.937000
      axis 0.0 0.0 90.0 xyz
   end
   begin
      id 22
      name RightHandThumb1
      direction 0.000000 0.000000 1.000000
      length 3.937000
      axis 0.0 0.0 90.0 xyz
      dof rx rz ry
   end
   begin
      id 23
      name LeftUpLeg
      direction 0.000000 -1.000000 0.000000
      length 16.181467
      axis 0.0 0.0 0.0 xyz
      dof rx ry rz
   end
   begin
      id 24
      name LeftLeg
      direction 0.000000 -1.000000 0.000000
      length 16.501392
      axis 0.0 0.0 0.0 xyz
      dof rx ry rz
   end
   begin
      id 25
      name LeftFoot
      direction 0.000000 -0.258819 0.965926
      length 6.408245
      axis 15.0 0.0 0.0 xyz
      dof rx ry rz
   end
   begin
      id 26
      name LeftToeBase
      direction 0.000000 0.000000 1.000000
      length 2.952750
      axis 0.0 0.0 0.0 xyz
      dof rx ry rz
   end
   begin
      id 27
      name RightUpLeg
      direction 0.000000 -1.000000 0.000000
      length 16.181467
      axis 0.0 0.0 0.0 xyz
      dof rx ry rz
   end
   begin
      id 28
      name RightLeg
      direction 0.000000 -1.000000 0.000000
      length 16.501392
      axis 0.0 0.0 0.0 xyz
      dof rx ry rz
   end
   begin
      id 29
      name RightFoot
      direction 0.000000 -0.258819 0.965926
      length 6.408245
      axis 15.0 0.0 0.0 xyz
      dof rx ry rz
   end
   begin
      id 30
      name RightToeBase
      direction 0.000000 0.000000 1.000000
      length 2.952750
      axis 0.0 0.0 0.0 xyz
      dof rx ry rz
   end
:hierarchy
   begin
      root Spine_dum LeftUpLeg_dum RightUpLeg_dum
      Spine_dum Spine
      LeftUpLeg_dum LeftUpLeg
      RightUpLeg_dum RightUpLeg
      Spine Spine_dum1 Spine_dum2 Spine_dum3
      Spine_dum1 Head
      Spine_dum2 LeftShoulder
      Spine_dum3 RightShoulder
      LeftShoulder LeftArm
      LeftArm LeftForeArm
      LeftForeArm LeftHand
      LeftHand LeftHand_dum1 LeftHand_dum2
      LeftHand_dum1 LeftHandThumb1
      RightShoulder RightArm
      RightArm RightForeArm
      RightForeArm RightHand
      RightHand RightHand_dum1 RightHand_dum2
      RightHand_dum1 RightHandThumb1
      LeftUpLeg LeftLeg
      LeftLeg LeftFoot
      LeftFoot LeftToeBase
      RightUpLeg RightLeg
      RightLeg RightFoot
      RightFoot RightToeBase
   end

# File created by Blade
# Date/Time:  Wed Apr 08 17:12:12 2015
# Frame Rate: 120.000 fps
#------------------------------------------------------
:FULLY-SPECIFIED
:DEGREES
494
root 2.270337 36.920156 8.113472 -29.925958 7.563848 -10.165830
Spine 38.057010 -5.736712 -1.513144
Head 2.100633 20.582478 10.527365
LeftShoulder -5.598150 16.446170 13.588777
LeftArm 25.866882 27.799373 -75.102852
LeftForeArm 23.643606 -0.000000 27.241513
LeftHand -13.843712 -0.000000 -9.853672
LeftHandThumb1 -26.253704 0.000000 33.147579
RightShoulder -29.609393 -53.068798 14.399304
RightArm 51.465308 -23.072444 46.735158
RightForeArm -0.133181 0.000000 8.226791
RightHand -4.237118 -0.000000 17.871987
RightHandThumb1 -24.326973 -0.000000 -32.862282
LeftUpLeg 28.343447 -1.356451 9.930935
LeftLeg 14.803700 -0.000000 -0.000000
LeftFoot -7.681836 -21.869697 -13.610488
LeftToeBase 14.544691 -0.000000 -0.000000
RightUpLeg -66.724904 1.434411 22.347957
RightLeg 134.656049 -0.000000 -0.000000
RightFoot 17.190830 -2.642569 16.549864
RightToeBase -2.730488 -0.000000 0.000000
495
root 2.236053 36.913616 8.115978 -29.887140 7.687696 -10.318343
Spine 37.986897 -5.717777 -1.367821
Head 2.045400 20.498160 10.572313
LeftShoulder -5.617299 16.491146 13.604318
LeftArm 25.754830 27.840948 -75.122798
LeftForeArm 23.744787 -0.000000 27.149702
LeftHand -13.755537 -0.000000 -9.917865
LeftHandThumb1 -26.253704 0.000000 33.147579
RightShoulder -29.647184 -53.047550 14.484202
RightArm 51.557274 -22.964343 46.722735
RightForeArm -0.004799 -0.000000 8.292207
RightHand -4.270342 0.000000 17.724860
RightHandThumb1 -24.326973 -0.000000 -32.862282
LeftUpLeg 28.192522 -1.566158 10.024224
LeftLeg 14.908795 -0.000000 -0.000000
LeftFoot -7.880136 -21.810311 -13.437723
LeftToeBase 14.287555 -0.000000 -0.000000
RightUpLeg -66.863570 1.366335 22.538557
RightLeg 134.582891 -0.000000 -0.000000
RightFoot 17.120160 -2.806858 16.647924
RightToeBase -2.771343 -0.000000 0.000000
496
root 2.199788 36.895532 8.102067 -29.511361 7.881367 -10.451499
Spine 37.527416 -5.774039 -1.261212
Head 2.073321 20.415767 10.683400
LeftShoulder -5.664540 16.601175 13.565792
LeftArm 25.662875 27.897369 -75.050947
LeftForeArm 23.961053 0.000000 27.032315
LeftHand -13.496444 -0.000000 -9.939573
LeftHandThumb1 -26.253704 0.000000 33.147579
RightShoulder -29.701772 -53.052198 14.650257
RightArm 51.582811 -22.777197 46.766486
RightForeArm 0.078650 -0.000000 8.355736
RightHand -4.309039 0.000000 17.614622
RightHandThumb1 -24.326973 -0.000000 -32.862282
LeftUpLeg 27.582878 -1.764565 10.089725
LeftLeg 15.183542 -0.000000 -0.000000
LeftFoot -8.147367 -21.835231 -13.211708
LeftToeBase 13.992348 -0.000000 -0.000000
RightUpLeg -67.389768 1.387295 22.646095
RightLeg 134.523486 -0.000000 -0.000000
RightFoot 17.096971 -2.917005 16.792203
RightToeBase -2.936000 -0.000000 0.000000
497
root 2.181506 36.887639 8.110939 -29.510197 7.899820 -10.450864
Spine 37.497127 -5.665422 -1.219465
Head 2.048951 20.359731 10.725479
LeftShoulder -5.728272 16.701963 13.546478
LeftArm 25.569417 27.899367 -75.067154
LeftForeArm 24.002937 -0.000000 26.931125
LeftHand -13.491498 -0.000000 -10.073437
LeftHandThumb1 -26.253704 0.000000 33.147579
RightShoulder -29.645073 -53.035073 14.644371
RightArm 51.612174 -22.643437 46.843723
RightForeArm 0.143450 -0.000000 8.448939
RightHand -4.209310 0.000000 17.364424
RightHandThumb1 -24.326973 -0.000000 -32.862282
LeftUpLeg 27.545457 -2.019807 9.940325
LeftLeg 15.299353 -0.000000 -0.000000
LeftFoot -8.359431 -21.557184 -13.046108
LeftToeBase 13.703630 -0.000000 -0.000000
RightUpLeg -67.435731 1.412382 22.680549
RightLeg 134.489753 -0.000000 -0.000000
RightFoot 17.094145 -2.909582 16.833655
RightToeBase -3.030671 -0.000000 0.000000
498
root 2.163694 36.879494 8.119113 -29.511954 7.911067 -10.445799
Spine 37.470269 -5.546525 -1.172883
Head 2.022666 20.269648 10.759788
LeftShoulder -5.780458 16.786099 13.536557
LeftArm 25.480826 27.934858 -75.049105
LeftForeArm 23.822301 -0.000000 26.833628
LeftHand -13.383142 -0.000000 -10.227040
LeftHandThumb1 -26.253704 0.000000 33.147579
RightShoulder -29.615959 -53.021223 14.675439
RightArm 51.675534 -22.526306 46.873237
RightForeArm 0.327684 -0.000000 8.553794
RightHand -4.196780 -0.000000 17.141648
RightHandThumb1 -24.326973 -0.000000 -32.862282
LeftUpLeg 27.511467 -2.175784 9.861346
LeftLeg 15.406676 -0.000000 -0.000000
LeftFoot -8.530882 -21.403144 -12.837046
LeftToeBase 13.442457 -0.000000 -0.000000
RightUpLeg -67.468100 1.434793 22.696356
RightLeg 134.452244 -0.000000 -0.000000
RightFoot 17.122729 -2.857742 16.862804
RightToeBase -3.101938 -0.000000 0.000000
499
root 2.146778 36.870283 8.125706 -29.517697 7.931472 -10.444908
Spine 37.444321 -5.453052 -1.129982
Head 2.026729 20.175523 10.813536
LeftShoulder -5.819256 16.862831 13.532098
LeftArm 25.374379 28.021165 -75.000232
LeftForeArm 23.672517 0.000000 26.793274
LeftHand -13.590135 -0.000000 -10.195030
LeftHandThumb1 -26.253704 0.000000 33.147579
RightShoulder -29.580014 -53.030993 14.699285
RightArm 51.806924 -22.471862 46.814300
RightForeArm 0.521100 -0.000000 8.640706
RightHand -4.047414 -0.000000 16.918316
RightHandThumb1 -24.326973 -0.000000 -32.862282
LeftUpLeg 27.457705 -2.264869 9.837758
LeftLeg 15.536054 -0.000000 -0.000000
LeftFoot -8.645990 -21.380489 -12.729575
LeftToeBase 13.172870 -0.000000 -0.000000
RightUpLeg -67.502669 1.441172 22.688013
RightLeg 134.414261 -0.000000 -0.000000
RightFoot 17.172348 -2.791598 16.827839
RightToeBase -3.078413 -0.000000 0.000000
500
root 2.135600 36.860827 8.135337 -29.545563 7.921510 -10.401390
Spine 37.436489 -5.313753 -1.095868
Head 2.044143 20.061598 10.860535
LeftShoulder -5.855256 16.931705 13.523969
LeftArm 25.290605 28.103332 -74.953260
LeftForeArm 23.470355 -0.000000 26.683026
LeftHand -13.417354 -0.000000 -10.475607
LeftHandThumb1 -26.253704 0.000000 33.147579
RightShoulder -29.575459 -53.021374 14.735005
RightArm 51.965068 -22.470261 46.681038
RightForeArm 0.697512 -0.000000 8.741593
RightHand -4.011180 0.000000 17.068442
RightHandThumb1 -24.326973 -0.000000 -32.862282
LeftUpLeg 27.464944 -2.441285 9.688015
LeftLeg 15.657952 -0.000000 -0.000000
LeftFoot -8.807793 -21.174920 -12.544614
LeftToeBase 12.891598 -0.000000 -0.000000
RightUpLeg -67.499210 1.453168 22.638353
RightLeg 134.385472 -0.000000 -0.000000
RightFoot 17.252105 -2.709809 16.787151
RightToeBase -3.096196 -0.000000 0.000000
